<?xml version="1.0" ?><!DOCTYPE svg  PUBLIC '-//W3C//DTD SVG 1.1//EN'  'http://www.w3.org/Graphics/SVG/1.1/DTD/svg11.dtd'><svg enable-background="new 0 0 100 100" height="100px" id="Layer_1" version="1.1" viewBox="0 0 100 100" width="100px" xml:space="preserve" xmlns="http://www.w3.org/2000/svg" xmlns:xlink="http://www.w3.org/1999/xlink"><g><defs><rect height="100" id="SVGID_1_" width="100"/></defs><path d="M69.348,53.348c0.232,0.595,0.338,1.207,0.338,1.816c0,1.227-0.424,2.418-1.135,3.391   c-0.703,0.961-1.699,1.707-2.871,2.035h0.002c-0.01,0.004-0.02,0.004-0.024,0.008c-0.005,0-0.013,0.004-0.017,0.004   c-0.549,0.188-1.111,0.275-1.67,0.275c-1.308,0-2.594-0.473-3.621-1.275c-1.02-0.801-1.791-1.95-2.033-3.315h-0.002   c0-0.004,0-0.009-0.002-0.015c0-0.004,0-0.008-0.004-0.014h0.004c-0.076-0.352-0.114-0.703-0.114-1.051   c0-1.181,0.401-2.316,1.065-3.254c0.662-0.932,1.596-1.672,2.688-2.053c0.004,0,0.008-0.002,0.008-0.002   c0.006,0,0.006-0.005,0.011-0.005c0.618-0.229,1.271-0.343,1.915-0.343c1.177,0,2.335,0.356,3.312,1.009   c0.965,0.642,1.748,1.582,2.141,2.75c0.004,0.009,0.004,0.015,0.008,0.021c0,0.008,0.004,0.012,0.008,0.018H69.348z M65.75,67.846   c-0.461-0.299-0.994-0.479-1.559-0.479c-0.455,0-0.928,0.13-1.349,0.41c-3.977,2.372-8.653,3.673-13.297,3.673   c-3.484,0-6.946-0.735-10.084-2.276l-0.016-0.008l-0.015-0.006c-0.474-0.193-1.013-0.604-1.601-0.996   c-0.298-0.192-0.61-0.386-0.957-0.527c-0.341-0.146-0.721-0.247-1.127-0.247c-0.335,0-0.688,0.075-1.037,0.233   c-0.018,0.007-0.035,0.014-0.052,0.021h0.002c-0.548,0.209-0.975,0.593-1.25,1.045c-0.288,0.467-0.429,1.01-0.429,1.551   c0,0.488,0.116,0.977,0.354,1.42c0.227,0.42,0.577,0.787,1.034,1.034c4.483,3.023,9.763,4.394,15.064,4.389   c4.778,0,9.586-1.106,13.866-3.12l0.022-0.014l0.021-0.012c0.564-0.334,1.314-0.634,2.021-1.07c0.35-0.223,0.691-0.48,0.984-0.815   c0.293-0.333,0.528-0.743,0.661-1.229v-0.002c0.056-0.215,0.082-0.424,0.082-0.633c0-0.397-0.098-0.774-0.26-1.113   C66.594,68.562,66.205,68.145,65.75,67.846 M34.268,60.572c0.008,0,0.019,0.003,0.027,0.008c0.573,0.209,1.162,0.312,1.746,0.312   c1.457,0,2.873-0.597,3.945-1.569c1.071-0.976,1.803-2.355,1.803-3.929c0-0.041,0-0.082-0.001-0.131   c0.003-0.07,0.005-0.147,0.005-0.227c0-1.561-0.723-2.946-1.783-3.926c-1.064-0.98-2.476-1.581-3.939-1.581   c-0.39,0-0.788,0.046-1.178,0.137c-0.005,0-0.01,0.002-0.016,0.002h-0.006c-1.936,0.405-3.635,1.842-4.262,3.818v0.002   c0,0.004-0.002,0.008-0.002,0.008c-0.18,0.541-0.264,1.1-0.264,1.653c0,1.21,0.401,2.39,1.091,3.36   c0.684,0.954,1.651,1.704,2.813,2.056C34.255,60.567,34.26,60.568,34.268,60.572 M94.982,46.449v0.008   C94.997,46.654,95,46.85,95,47.045c0,2.186-0.701,4.288-1.871,6.071c-1.092,1.669-2.598,3.065-4.332,4.013   c0.111,0.87,0.176,1.747,0.176,2.621c-0.002,4.707-1.625,9.334-4.451,13.042v0.002h-0.006c-5.225,6.95-13.248,11.049-21.35,13.116   h-0.002l-0.006,0.005c-4.32,1.049-8.775,1.585-13.229,1.585c-6.64,0-13.273-1.197-19.464-3.68l-0.002-0.006h-0.006   c-6.418-2.646-12.533-6.851-16.283-13.012c-2.017-3.287-3.125-7.144-3.125-11.019c0-0.877,0.059-1.755,0.176-2.623   c-1.688-0.951-3.151-2.3-4.238-3.91C5.829,51.521,5.093,49.495,5,47.353v-0.008v-0.008V47.32c0.002-3,1.306-5.842,3.33-7.937   c2.025-2.095,4.791-3.464,7.758-3.464h0.123c0.311-0.021,0.625-0.033,0.939-0.033c1.491,0,2.984,0.241,4.402,0.785l0.008,0.006   l0.008,0.002c1.211,0.51,2.414,1.125,3.487,1.977c0.347-0.182,0.727-0.387,1.151-0.549c6.5-3.849,14.056-5.334,21.418-5.762   c0.064-3.648,0.513-7.466,2.291-10.808c1.482-2.776,4.053-4.938,7.115-5.687l0.013-0.006l0.017-0.002   c1.166-0.226,2.342-0.33,3.51-0.33c3.111,0,6.186,0.737,9.062,1.887c1.273-1.922,3.092-3.422,5.225-4.263l0.021-0.012l0.021-0.008   c1.252-0.39,2.574-0.618,3.901-0.618c1.4,0,2.812,0.256,4.134,0.847V13.34c0.002,0.005,0.004,0.005,0.004,0.005   c0.01,0.003,0.018,0.009,0.024,0.009c1.896,0.73,3.5,2.079,4.638,3.756c1.139,1.684,1.809,3.701,1.809,5.775   c0,0.382-0.021,0.765-0.066,1.148l-0.004,0.008c0,0.006,0,0.014-0.002,0.02c-0.223,2.68-1.58,5.032-3.502,6.709   c-1.934,1.684-4.438,2.701-7.008,2.701c-0.412,0-0.829-0.023-1.242-0.078c-2.549-0.195-4.926-1.428-6.672-3.263   c-1.752-1.832-2.881-4.28-2.881-6.922c0-0.128,0.012-0.259,0.016-0.386c-2.393-1.065-4.934-1.949-7.459-1.947   c-0.365,0-0.73,0.02-1.096,0.057h-0.004c-1.891,0.182-3.648,1.374-4.5,3.088v0.002v0.006c-1.293,2.518-1.551,5.461-1.59,8.383   c7.248,0.473,14.539,2.212,20.934,5.888h0.01l0.092,0.054c0.121,0.072,0.346,0.195,0.549,0.303   c0.439-0.356,0.904-0.723,1.435-1.039c1.938-1.291,4.235-1.933,6.533-1.933c1.02,0,2.041,0.13,3.03,0.384h0.004l0.041,0.012   c0.014,0.002,0.025,0.007,0.037,0.007v0.002c2.34,0.595,4.457,1.939,6.051,3.751c1.594,1.815,2.664,4.111,2.873,6.604v0.005H94.982   z M73.633,22.729c0,0.098,0.002,0.199,0.012,0.301v0.006v0.012c0.047,1.259,0.642,2.431,1.545,3.297   c0.908,0.866,2.113,1.402,3.336,1.407h0.017h0.017c0.088,0.007,0.178,0.007,0.264,0.007c1.234,0.002,2.459-0.53,3.379-1.393   c0.922-0.867,1.529-2.046,1.578-3.316l0.002-0.006v-0.008c0.008-0.097,0.012-0.189,0.012-0.288c0-1.307-0.611-2.553-1.568-3.476   c-0.953-0.922-2.236-1.493-3.502-1.49c-0.408,0-0.812,0.056-1.209,0.179L77.5,17.962l-0.012,0.005   c-1.043,0.271-2.021,0.914-2.723,1.768C74.061,20.585,73.633,21.636,73.633,22.729 M20.13,42.156   c-0.968-0.451-1.97-0.773-2.961-0.769c-0.166,0-0.334,0.01-0.5,0.028h-0.023l-0.023,0.003c-1.421,0.039-2.857,0.659-3.934,1.653   c-1.078,0.99-1.791,2.327-1.846,3.801v0.014l-0.002,0.012c-0.01,0.119-0.013,0.238-0.013,0.352c0,0.909,0.278,1.788,0.751,2.588   c0.351,0.595,0.81,1.139,1.329,1.611C14.57,47.811,17.166,44.723,20.13,42.156 M83.271,59.954c0-3.243-1.17-6.501-3.064-9.124   c-3.777-5.256-9.637-8.684-15.732-10.595l-0.043-0.015c-1.17-0.359-2.352-0.677-3.543-0.949c-3.562-0.811-7.215-1.215-10.863-1.215   c-4.9,0-9.799,0.725-14.489,2.172c-6.095,1.934-11.974,5.338-15.743,10.611v0.004c-1.91,2.634-3.028,5.902-3.028,9.157   c0,1.198,0.149,2.396,0.466,3.562l0.004,0.002c0.686,2.617,2.028,4.953,3.764,6.987c1.736,2.039,3.866,3.778,6.105,5.197   c0.496,0.308,0.995,0.601,1.504,0.887c6.507,3.632,13.998,5.225,21.437,5.225c1.258,0,2.523-0.046,3.773-0.136   c7.49-0.619,15.012-2.83,21.092-7.348l0.002-0.005c1.936-1.43,3.729-3.162,5.146-5.132c1.424-1.971,2.467-4.173,2.93-6.566v-0.007   l0.002-0.002C83.18,61.771,83.271,60.864,83.271,59.954 M89.184,47.047c-0.002-0.787-0.182-1.571-0.576-2.302l-0.01-0.009   l-0.004-0.012c-0.527-1.086-1.355-1.906-2.354-2.465c-0.998-0.563-2.166-0.849-3.338-0.849c-1.06,0-2.113,0.237-3.049,0.707   c2.975,2.583,5.584,5.687,7.271,9.34c0.543-0.472,1.006-1.05,1.353-1.692C88.928,48.924,89.184,47.979,89.184,47.047"/></g></svg>